<svg width="10000" height="3833" viewBox="0 0 10000 3833" fill="none" xmlns="http://www.w3.org/2000/svg">
<g clip-path="url(#clip0_103_8)">
<path d="M2322.36 2440.04C2273.68 2547.15 2210.38 2642.91 2132.48 2727.3C2054.58 2808.45 1966.95 2878.23 1869.58 2936.66C1772.2 2991.84 1666.72 3035.66 1553.11 3068.12C1442.76 3097.33 1330.78 3111.94 1217.17 3111.94C1067.87 3111.94 920.182 3084.35 774.119 3029.17C628.06 2970.74 498.232 2881.48 384.626 2761.38C271.024 2641.28 178.519 2488.73 107.111 2303.71C35.7037 2115.45 0 1891.48 0 1631.81C0 1342.93 35.7037 1096.24 107.111 891.746C181.764 687.255 279.138 520.093 399.232 390.255C519.328 260.421 654.03 166.29 803.332 107.864C955.887 46.1917 1110.06 15.3557 1265.86 15.3557C1457.36 15.3557 1637.51 55.9294 1806.28 137.077C1975.07 218.224 2111.39 331.831 2215.25 477.897L2108.14 619.092C2036.74 482.765 1931.25 378.895 1791.68 307.486C1652.11 236.076 1499.55 200.372 1334.02 200.372C1197.7 200.372 1059.75 227.962 920.182 283.142C783.858 338.323 658.898 424.337 545.292 541.189C434.935 654.795 344.055 802.486 272.647 984.256C204.485 1162.78 170.404 1377.01 170.404 1626.94C170.404 1844.42 201.239 2034.3 262.909 2196.6C327.824 2358.89 410.593 2495.22 511.211 2605.58C615.078 2712.69 731.927 2793.84 861.755 2849.02C994.836 2900.96 1127.91 2926.92 1260.99 2926.92C1355.12 2926.92 1446 2913.94 1533.63 2887.97C1621.27 2862.01 1704.04 2824.68 1781.94 2775.99C1859.84 2724.05 1929.63 2659.14 1991.29 2581.23C2052.96 2503.34 2103.27 2412.45 2142.22 2308.58L2322.36 2440.04ZM2491.11 655.12C2543.04 652.527 2593.68 649.927 2643.02 647.331C2692.35 644.738 2742.98 642.138 2794.92 639.542C2849.45 636.945 2907.87 634.346 2970.19 631.752C3035.11 629.156 3109.11 626.556 3192.19 623.96C3420.71 618.767 3610.26 647.331 3760.88 709.652C3914.05 771.972 4030.9 852.472 4111.4 951.149C4191.91 1047.22 4237.34 1154.99 4247.72 1274.44C4260.72 1391.29 4239.95 1504.25 4185.41 1613.31C4133.48 1722.37 4047.79 1819.75 3928.35 1905.44C3811.5 1991.13 3663.49 2050.86 3484.33 2084.61C3582.99 2271.58 3677.76 2454.65 3768.65 2633.82C3862.12 2812.99 3945.24 2973.99 4017.94 3116.81C4103.63 3283.01 4185.41 3440.1 4263.3 3588.11C4242.53 3606.27 4224.37 3623.16 4208.79 3638.74C4193.21 3651.73 4177.64 3663.43 4162.06 3673.81C4146.48 3684.2 4134.79 3689.39 4126.98 3689.39C4124.4 3689.39 4098.44 3642.65 4049.09 3549.15C3999.75 3455.68 3936.13 3333.63 3858.23 3183.02C3782.92 3032.42 3698.53 2862.33 3605.07 2672.77C3514.18 2483.21 3422.01 2293.65 3328.51 2104.09H3320.74C3284.39 2106.68 3248.04 2109.29 3211.69 2111.88C3175.32 2111.88 3138.97 2111.88 3102.62 2111.88C3003.95 2111.88 2914.36 2109.28 2833.87 2104.09C2755.97 2096.3 2692.35 2088.51 2643.02 2080.72L2662.49 3128.49C2649.51 3125.9 2636.52 3124.6 2623.54 3124.6C2610.55 3124.6 2597.57 3123.3 2584.59 3120.7C2574.2 3120.7 2562.52 3120.7 2549.54 3120.7C2523.57 3120.7 2510.59 3123.3 2510.59 3128.49C2510.59 3131.09 2509.29 3098.63 2506.69 3031.12C2506.69 2961.01 2505.39 2868.82 2502.8 2754.57C2502.8 2637.71 2501.5 2505.28 2498.9 2357.27C2496.3 2209.26 2493.71 2057.35 2491.11 1901.55C2491.11 1745.74 2489.81 1593.83 2487.22 1445.82C2487.22 1295.21 2485.92 1161.48 2483.32 1044.63C2483.32 927.778 2483.32 834.296 2483.32 764.183C2485.92 691.477 2488.51 655.12 2491.11 655.12ZM3270.12 1979.45C3462.25 1974.25 3620.64 1939.2 3745.3 1874.28C3869.93 1809.36 3962.09 1731.46 4021.82 1640.58C4081.55 1547.09 4108.82 1447.12 4103.63 1340.66C4101.02 1234.19 4064.67 1135.51 3994.55 1044.63C3924.47 953.742 3823.19 879.736 3690.76 822.611C3558.33 762.883 3393.44 734.323 3196.11 736.919C3100.02 739.512 3018.23 742.112 2950.72 744.708C2885.8 747.305 2831.27 749.904 2787.13 752.498C2745.58 755.094 2711.83 757.694 2685.86 760.29C2659.89 762.883 2637.82 766.78 2619.65 771.972L2639.12 1959.97C2683.26 1965.17 2740.39 1970.36 2810.5 1975.55C2883.2 1980.75 2968.89 1983.34 3067.57 1983.34C3098.73 1983.34 3131.18 1983.34 3164.94 1983.34C3198.69 1983.34 3233.74 1982.04 3270.12 1979.45ZM5811.09 956.017L5814.5 1051.44C5750.84 1053.72 5678.15 1055.99 5596.37 1058.26C5516.85 1058.26 5433.9 1059.4 5347.56 1061.67C5263.49 1061.67 5179.45 1061.67 5095.38 1061.67C5011.31 1061.67 4934.09 1061.67 4863.62 1061.67H4587.58L4604.62 2073.9C4659.13 2073.9 4725.04 2073.9 4802.29 2073.9C4881.78 2073.9 4962.47 2073.9 5044.25 2073.9C5128.35 2073.9 5211.25 2073.9 5293.05 2073.9C5377.13 2071.63 5452.12 2070.5 5517.97 2070.5L5521.38 2169.33L4608.03 2196.6L4621.66 2994.11L5811.09 2980.48L5814.5 3079.32C5814.5 3079.32 5781.52 3080.45 5715.64 3082.73C5649.76 3085 5567.98 3088.41 5470.28 3092.95C5372.54 3095.22 5265.79 3098.63 5149.92 3103.18C5036.32 3105.45 4930.68 3108.86 4832.94 3113.4C4735.27 3115.67 4653.46 3116.81 4587.58 3116.81C4523.96 3119.08 4492.13 3120.22 4492.13 3120.22L4485.31 2196.6H4403.54C4398.98 2173.87 4395.57 2153.43 4393.31 2135.25C4391.05 2119.34 4389.9 2105.71 4389.9 2094.35C4389.9 2080.72 4392.16 2073.9 4396.72 2073.9H4481.9L4475.09 942.385L5811.09 956.017ZM5385.06 339.133C5357.79 359.582 5330.55 381.169 5303.28 403.89C5278.3 422.066 5248.74 443.653 5214.65 468.645C5182.86 491.366 5149.92 515.225 5115.83 540.218C5036.32 599.292 4946.54 666.322 4846.58 741.3L4907.93 819.69L5466.87 472.054L5385.06 339.133ZM7570.34 647.331L7574.23 756.394C7501.5 758.987 7418.41 761.59 7324.94 764.183C7234.06 764.183 7139.25 765.483 7040.62 768.079C6944.5 768.079 6848.45 768.079 6752.41 768.079C6656.29 768.079 6568.01 768.079 6487.54 768.079H6172.03L6191.53 1924.92C6253.84 1924.92 6329.12 1924.92 6417.43 1924.92C6508.28 1924.92 6600.48 1924.92 6693.98 1924.92C6790.03 1924.92 6884.8 1924.92 6978.3 1924.92C7074.35 1922.32 7160.05 1921.02 7235.36 1921.02L7239.25 2033.98L6195.41 2065.14L6210.99 2976.58L7570.34 2961.01L7574.23 3073.96C7574.23 3073.96 7536.54 3075.26 7461.26 3077.86C7385.95 3080.45 7292.48 3084.35 7180.82 3089.54C7069.16 3092.14 6947.15 3096.03 6814.72 3101.23C6684.87 3103.82 6564.13 3107.72 6452.47 3112.91C6340.78 3115.51 6247.31 3116.81 6172.03 3116.81C6099.3 3119.4 6062.98 3120.7 6062.98 3120.7L6055.18 2065.14H5961.71C5956.51 2039.17 5952.6 2015.8 5950.02 1995.03C5947.4 1976.85 5946.13 1961.27 5946.13 1948.29C5946.13 1932.71 5948.71 1924.92 5953.93 1924.92H6051.29L6043.52 631.752L7570.34 647.331ZM7784.74 39.7C7849.63 36.4539 7912.93 33.2082 7974.61 29.9623C8036.32 26.7163 8099.62 23.4703 8164.51 20.2244C8232.65 16.9786 8305.7 13.7328 8383.59 10.4869C8464.77 7.24086 8557.25 3.99488 8661.1 0.749027C8946.77 -5.74264 9183.66 29.9622 9371.93 107.864C9563.43 185.765 9709.49 286.388 9810.13 409.73C9910.77 529.832 9967.54 664.534 9980.53 813.847C9996.75 959.91 9970.79 1101.11 9902.61 1237.44C9837.72 1373.76 9730.61 1495.48 9581.3 1602.6C9435.23 1709.71 9250.21 1784.37 9026.25 1826.56C9149.57 2060.27 9268.08 2289.11 9381.68 2513.07C9498.53 2737.04 9602.39 2938.28 9693.28 3116.81C9800.38 3324.55 9902.61 3520.92 10000 3705.92C9974.04 3728.67 9951.32 3749.76 9931.83 3769.23C9912.36 3785.47 9892.9 3800.06 9873.4 3813.06C9853.93 3826.03 9839.34 3832.53 9829.6 3832.53C9826.35 3832.53 9793.91 3774.1 9732.21 3657.24C9670.53 3540.39 9591.02 3387.85 9493.66 3199.57C9399.55 3011.32 9294.04 2798.71 9177.19 2561.76C9063.62 2324.81 8948.36 2087.86 8831.51 1850.91H8821.79C8776.36 1854.16 8730.87 1857.4 8685.44 1860.65C8640.01 1860.65 8594.55 1860.65 8549.12 1860.65C8425.8 1860.65 8313.83 1857.4 8213.19 1850.91C8115.8 1841.17 8036.32 1831.44 7974.61 1821.7L7998.98 3131.41C7982.76 3128.17 7966.49 3126.55 7950.27 3126.55C7934.06 3126.55 7917.81 3124.92 7901.59 3121.68C7888.6 3121.68 7874 3121.68 7857.79 3121.68C7825.29 3121.68 7809.08 3124.92 7809.08 3131.41C7809.08 3134.66 7807.49 3094.09 7804.2 3009.69C7804.2 2922.06 7802.61 2806.83 7799.36 2664.01C7799.36 2517.94 7797.74 2352.4 7794.49 2167.39C7791.21 1982.37 7788.02 1792.48 7784.74 1597.73C7784.74 1402.98 7783.15 1213.09 7779.87 1028.08C7779.87 839.811 7778.27 672.649 7775.02 526.586C7775.02 380.519 7775.02 263.667 7775.02 176.028C7778.27 85.1423 7781.49 39.7 7784.74 39.7ZM8758.49 1695.11C8998.66 1688.62 9196.65 1644.8 9352.47 1563.65C9508.25 1482.5 9623.51 1385.12 9698.15 1271.52C9772.79 1154.66 9806.85 1029.69 9800.38 896.617C9797.13 763.536 9751.7 640.188 9664.06 526.586C9576.43 412.976 9449.82 320.47 9284.29 249.06C9118.76 174.404 8912.68 138.7 8665.98 141.946C8545.87 145.192 8443.61 148.437 8359.25 151.683C8278.08 154.929 8209.94 158.175 8154.76 161.42C8102.8 164.666 8060.66 167.913 8028.19 171.159C7995.7 174.404 7968.14 179.273 7945.43 185.765L7969.77 1670.76C8024.91 1677.25 8096.34 1683.75 8183.98 1690.24C8274.86 1696.73 8382 1699.98 8505.32 1699.98C8544.25 1699.98 8584.8 1699.98 8627.01 1699.98C8669.23 1699.98 8713.06 1698.35 8758.49 1695.11Z" fill="#1D1A18"/>
</g>
<defs>
<clipPath id="clip0_103_8">
<rect width="10000" height="3832.53" fill="white"/>
</clipPath>
</defs>
</svg>
